<svg width="373" height="94" viewBox="0 0 373 94" fill="none" xmlns="http://www.w3.org/2000/svg">
<path d="M108.828 74.7812C105.547 74.7812 102.604 74.2604 100 73.2188C97.3958 72.151 95.1823 70.6797 93.3594 68.8047C91.5625 66.9297 90.1823 64.7552 89.2188 62.2812C88.2552 59.7812 87.7734 57.125 87.7734 54.3125V52.75C87.7734 49.5469 88.2292 46.6172 89.1406 43.9609C90.0521 41.3047 91.3542 39 93.0469 37.0469C94.7656 35.0938 96.849 33.5964 99.2969 32.5547C101.745 31.487 104.505 30.9531 107.578 30.9531C110.573 30.9531 113.229 31.4479 115.547 32.4375C117.865 33.4271 119.805 34.8333 121.367 36.6562C122.956 38.4792 124.154 40.6667 124.961 43.2188C125.768 45.7448 126.172 48.5573 126.172 51.6562V56.3438H92.5781V48.8438H115.117V47.9844C115.117 46.4219 114.831 45.0286 114.258 43.8047C113.711 42.5547 112.878 41.5651 111.758 40.8359C110.638 40.1068 109.206 39.7422 107.461 39.7422C105.977 39.7422 104.701 40.0677 103.633 40.7188C102.565 41.3698 101.693 42.2812 101.016 43.4531C100.365 44.625 99.8698 46.0052 99.5312 47.5938C99.2188 49.1562 99.0625 50.875 99.0625 52.75V54.3125C99.0625 56.0052 99.2969 57.5677 99.7656 59C100.26 60.4323 100.951 61.6693 101.836 62.7109C102.747 63.7526 103.841 64.5599 105.117 65.1328C106.419 65.7057 107.891 65.9922 109.531 65.9922C111.562 65.9922 113.451 65.6016 115.195 64.8203C116.966 64.013 118.49 62.8021 119.766 61.1875L125.234 67.125C124.349 68.401 123.138 69.625 121.602 70.7969C120.091 71.9688 118.268 72.9323 116.133 73.6875C113.997 74.4167 111.562 74.7812 108.828 74.7812ZM152.031 74.7812C148.75 74.7812 145.807 74.2604 143.203 73.2188C140.599 72.151 138.385 70.6797 136.562 68.8047C134.766 66.9297 133.385 64.7552 132.422 62.2812C131.458 59.7812 130.977 57.125 130.977 54.3125V52.75C130.977 49.5469 131.432 46.6172 132.344 43.9609C133.255 41.3047 134.557 39 136.25 37.0469C137.969 35.0938 140.052 33.5964 142.5 32.5547C144.948 31.487 147.708 30.9531 150.781 30.9531C153.776 30.9531 156.432 31.4479 158.75 32.4375C161.068 33.4271 163.008 34.8333 164.57 36.6562C166.159 38.4792 167.357 40.6667 168.164 43.2188C168.971 45.7448 169.375 48.5573 169.375 51.6562V56.3438H135.781V48.8438H158.32V47.9844C158.32 46.4219 158.034 45.0286 157.461 43.8047C156.914 42.5547 156.081 41.5651 154.961 40.8359C153.841 40.1068 152.409 39.7422 150.664 39.7422C149.18 39.7422 147.904 40.0677 146.836 40.7188C145.768 41.3698 144.896 42.2812 144.219 43.4531C143.568 44.625 143.073 46.0052 142.734 47.5938C142.422 49.1562 142.266 50.875 142.266 52.75V54.3125C142.266 56.0052 142.5 57.5677 142.969 59C143.464 60.4323 144.154 61.6693 145.039 62.7109C145.951 63.7526 147.044 64.5599 148.32 65.1328C149.622 65.7057 151.094 65.9922 152.734 65.9922C154.766 65.9922 156.654 65.6016 158.398 64.8203C160.169 64.013 161.693 62.8021 162.969 61.1875L168.438 67.125C167.552 68.401 166.341 69.625 164.805 70.7969C163.294 71.9688 161.471 72.9323 159.336 73.6875C157.201 74.4167 154.766 74.7812 152.031 74.7812ZM196.484 31.7344V39.7031H171.875V31.7344H196.484ZM177.969 21.3047H189.219V61.2656C189.219 62.4896 189.375 63.4271 189.688 64.0781C190.026 64.7292 190.521 65.1849 191.172 65.4453C191.823 65.6797 192.643 65.7969 193.633 65.7969C194.336 65.7969 194.961 65.7708 195.508 65.7188C196.081 65.6406 196.562 65.5625 196.953 65.4844L196.992 73.7656C196.029 74.0781 194.987 74.3255 193.867 74.5078C192.747 74.6901 191.51 74.7812 190.156 74.7812C187.682 74.7812 185.521 74.3776 183.672 73.5703C181.849 72.737 180.443 71.4089 179.453 69.5859C178.464 67.763 177.969 65.3672 177.969 62.3984V21.3047ZM225.703 64.4688V45.6406C225.703 44.2865 225.482 43.1276 225.039 42.1641C224.596 41.1745 223.906 40.4062 222.969 39.8594C222.057 39.3125 220.872 39.0391 219.414 39.0391C218.164 39.0391 217.083 39.2604 216.172 39.7031C215.26 40.1198 214.557 40.7318 214.062 41.5391C213.568 42.3203 213.32 43.2448 213.32 44.3125H202.07C202.07 42.5156 202.487 40.8099 203.32 39.1953C204.154 37.5807 205.365 36.1615 206.953 34.9375C208.542 33.6875 210.43 32.7109 212.617 32.0078C214.831 31.3047 217.305 30.9531 220.039 30.9531C223.32 30.9531 226.237 31.5 228.789 32.5938C231.341 33.6875 233.346 35.3281 234.805 37.5156C236.289 39.7031 237.031 42.4375 237.031 45.7188V63.8047C237.031 66.1224 237.174 68.0234 237.461 69.5078C237.747 70.9661 238.164 72.2422 238.711 73.3359V74H227.344C226.797 72.8542 226.38 71.4219 226.094 69.7031C225.833 67.9583 225.703 66.2135 225.703 64.4688ZM227.188 48.2578L227.266 54.625H220.977C219.492 54.625 218.203 54.7943 217.109 55.1328C216.016 55.4714 215.117 55.9531 214.414 56.5781C213.711 57.1771 213.19 57.8802 212.852 58.6875C212.539 59.4948 212.383 60.3802 212.383 61.3438C212.383 62.3073 212.604 63.1797 213.047 63.9609C213.49 64.7161 214.128 65.3151 214.961 65.7578C215.794 66.1745 216.771 66.3828 217.891 66.3828C219.583 66.3828 221.055 66.0443 222.305 65.3672C223.555 64.6901 224.518 63.8568 225.195 62.8672C225.898 61.8776 226.263 60.9401 226.289 60.0547L229.258 64.8203C228.841 65.888 228.268 66.9948 227.539 68.1406C226.836 69.2865 225.938 70.3672 224.844 71.3828C223.75 72.3724 222.435 73.1927 220.898 73.8438C219.362 74.4688 217.539 74.7812 215.43 74.7812C212.747 74.7812 210.312 74.2474 208.125 73.1797C205.964 72.0859 204.245 70.5885 202.969 68.6875C201.719 66.7604 201.094 64.5729 201.094 62.125C201.094 59.9115 201.51 57.9453 202.344 56.2266C203.177 54.5078 204.401 53.0625 206.016 51.8906C207.656 50.6927 209.701 49.7943 212.148 49.1953C214.596 48.5703 217.435 48.2578 220.664 48.2578H227.188ZM272.461 31.7344H282.656V72.5938C282.656 76.4479 281.797 79.7161 280.078 82.3984C278.385 85.1068 276.016 87.151 272.969 88.5312C269.922 89.9375 266.38 90.6406 262.344 90.6406C260.573 90.6406 258.698 90.4062 256.719 89.9375C254.766 89.4688 252.891 88.7396 251.094 87.75C249.323 86.7604 247.839 85.5104 246.641 84L251.602 77.3594C252.904 78.8698 254.414 80.0417 256.133 80.875C257.852 81.7344 259.753 82.1641 261.836 82.1641C263.867 82.1641 265.586 81.7865 266.992 81.0312C268.398 80.3021 269.479 79.2214 270.234 77.7891C270.99 76.3828 271.367 74.6771 271.367 72.6719V41.5L272.461 31.7344ZM244.023 53.375V52.5547C244.023 49.3255 244.414 46.3958 245.195 43.7656C246.003 41.1094 247.135 38.8307 248.594 36.9297C250.078 35.0286 251.875 33.5573 253.984 32.5156C256.094 31.474 258.477 30.9531 261.133 30.9531C263.945 30.9531 266.302 31.474 268.203 32.5156C270.104 33.5573 271.667 35.0417 272.891 36.9688C274.115 38.8698 275.065 41.1224 275.742 43.7266C276.445 46.3047 276.992 49.1302 277.383 52.2031V54C276.992 56.9427 276.406 59.6771 275.625 62.2031C274.844 64.7292 273.815 66.9427 272.539 68.8438C271.263 70.7188 269.674 72.1771 267.773 73.2188C265.898 74.2604 263.659 74.7812 261.055 74.7812C258.451 74.7812 256.094 74.2474 253.984 73.1797C251.901 72.112 250.117 70.6146 248.633 68.6875C247.148 66.7604 246.003 64.4948 245.195 61.8906C244.414 59.2865 244.023 56.4479 244.023 53.375ZM255.273 52.5547V53.375C255.273 55.1198 255.443 56.7474 255.781 58.2578C256.12 59.7682 256.641 61.1094 257.344 62.2812C258.073 63.4271 258.971 64.3255 260.039 64.9766C261.133 65.6016 262.422 65.9141 263.906 65.9141C265.964 65.9141 267.643 65.4844 268.945 64.625C270.247 63.7396 271.224 62.5286 271.875 60.9922C272.526 59.4557 272.904 57.6849 273.008 55.6797V50.5625C272.956 48.9219 272.734 47.4505 272.344 46.1484C271.953 44.8203 271.406 43.6875 270.703 42.75C270 41.8125 269.089 41.0833 267.969 40.5625C266.849 40.0417 265.521 39.7812 263.984 39.7812C262.5 39.7812 261.211 40.1198 260.117 40.7969C259.049 41.4479 258.151 42.3464 257.422 43.4922C256.719 44.638 256.185 45.9922 255.82 47.5547C255.456 49.0911 255.273 50.7578 255.273 52.5547ZM303.281 31.7344V74H291.992V31.7344H303.281ZM291.289 20.7188C291.289 19.0781 291.862 17.724 293.008 16.6562C294.154 15.5885 295.69 15.0547 297.617 15.0547C299.518 15.0547 301.042 15.5885 302.188 16.6562C303.359 17.724 303.945 19.0781 303.945 20.7188C303.945 22.3594 303.359 23.7135 302.188 24.7812C301.042 25.849 299.518 26.3828 297.617 26.3828C295.69 26.3828 294.154 25.849 293.008 24.7812C291.862 23.7135 291.289 22.3594 291.289 20.7188ZM324.453 14V74H313.164V14H324.453ZM353.203 74.7812C349.922 74.7812 346.979 74.2604 344.375 73.2188C341.771 72.151 339.557 70.6797 337.734 68.8047C335.938 66.9297 334.557 64.7552 333.594 62.2812C332.63 59.7812 332.148 57.125 332.148 54.3125V52.75C332.148 49.5469 332.604 46.6172 333.516 43.9609C334.427 41.3047 335.729 39 337.422 37.0469C339.141 35.0938 341.224 33.5964 343.672 32.5547C346.12 31.487 348.88 30.9531 351.953 30.9531C354.948 30.9531 357.604 31.4479 359.922 32.4375C362.24 33.4271 364.18 34.8333 365.742 36.6562C367.331 38.4792 368.529 40.6667 369.336 43.2188C370.143 45.7448 370.547 48.5573 370.547 51.6562V56.3438H336.953V48.8438H359.492V47.9844C359.492 46.4219 359.206 45.0286 358.633 43.8047C358.086 42.5547 357.253 41.5651 356.133 40.8359C355.013 40.1068 353.581 39.7422 351.836 39.7422C350.352 39.7422 349.076 40.0677 348.008 40.7188C346.94 41.3698 346.068 42.2812 345.391 43.4531C344.74 44.625 344.245 46.0052 343.906 47.5938C343.594 49.1562 343.438 50.875 343.438 52.75V54.3125C343.438 56.0052 343.672 57.5677 344.141 59C344.635 60.4323 345.326 61.6693 346.211 62.7109C347.122 63.7526 348.216 64.5599 349.492 65.1328C350.794 65.7057 352.266 65.9922 353.906 65.9922C355.938 65.9922 357.826 65.6016 359.57 64.8203C361.341 64.013 362.865 62.8021 364.141 61.1875L369.609 67.125C368.724 68.401 367.513 69.625 365.977 70.7969C364.466 71.9688 362.643 72.9323 360.508 73.6875C358.372 74.4167 355.938 74.7812 353.203 74.7812Z" fill="#1C2B2D"/>
<path d="M28.0423 17H10.0141L1 74H21.2817L31.4225 54.62L35.9296 64.88L46.0704 45.5H47.1972L61.8451 74H81L73.1127 17H55.0845L41.5634 32.96L28.0423 17Z" fill="black" stroke="black"/>
</svg>
